HIERARCHY
ROOT Hips
{
	OFFSET -3.958830 18.904000 13.208200
	CHANNELS 6 Xposition Yposition Zposition Zrotation Yrotation Xrotation 
	JOINT LHipJoint
	{
		OFFSET 0.000000 0.000000 0.000000
		CHANNELS 3 Zrotation Yrotation Xrotation
		JOINT LeftUpLeg
		{
			OFFSET 1.800000 -1.400000 0.085000
			CHANNELS 3 Zrotation Yrotation Xrotation
			JOINT LeftLeg
			{
				OFFSET 2.215000 -6.000000 0.000000
				CHANNELS 3 Zrotation Yrotation Xrotation
				JOINT LeftFoot
				{
					OFFSET 2.500000 -6.900000 0.000000
					CHANNELS 3 Zrotation Yrotation Xrotation
					JOINT LeftToeBase
					{
						OFFSET 0.200000 -0.500000 1.950000
						CHANNELS 3 Zrotation Yrotation Xrotation
						End Site
						{
							OFFSET 0.000000 0.000000 0.000000
						}
					}
				}
			}
		}
	}
	JOINT RHipJoint
	{
		OFFSET 0.000000 0.000000 0.000000
		CHANNELS 3 Zrotation Yrotation Xrotation
		JOINT RightUpLeg
		{
			OFFSET -1.800000 -1.400000 0.085000
			CHANNELS 3 Zrotation Yrotation Xrotation
			JOINT RightLeg
			{
				OFFSET -2.215000 -6.000000 0.000000
				CHANNELS 3 Zrotation Yrotation Xrotation
				JOINT RightFoot
				{
					OFFSET -2.500000 -6.900000 0.000000
					CHANNELS 3 Zrotation Yrotation Xrotation
					JOINT RightToeBase
					{
						OFFSET -0.200000 -0.500000 1.950000
						CHANNELS 3 Zrotation Yrotation Xrotation
						End Site
						{
							OFFSET 0.000000 0.000000 0.000000
						}
					}
				}
			}
		}
	}
	JOINT LowerBack
	{
		OFFSET 0.000000 0.000000 0.000000
		CHANNELS 3 Zrotation Yrotation Xrotation
		JOINT Spine
		{
			OFFSET -0.087000 1.940000 -0.288900
			CHANNELS 3 Zrotation Yrotation Xrotation
			JOINT Spine1
			{
				OFFSET 0.000000 1.950000 0.060000
				CHANNELS 3 Zrotation Yrotation Xrotation
				JOINT Neck
				{
					OFFSET 0.000000 0.000000 0.000000
					CHANNELS 3 Zrotation Yrotation Xrotation
					JOINT Neck1
					{
						OFFSET 0.000000 1.600000 0.340000
						CHANNELS 3 Zrotation Yrotation Xrotation
						JOINT Head
						{
							OFFSET 0.000000 1.667000 -0.240000
							CHANNELS 3 Zrotation Yrotation Xrotation
							End Site
							{
								OFFSET 0.000000 0.000000 0.000000
							}
						}
					}
				}
				JOINT LeftShoulder
				{
					OFFSET 0.000000 0.000000 0.000000
					CHANNELS 3 Zrotation Yrotation Xrotation
					JOINT LeftArm
					{
						OFFSET 2.700000 1.550000 -0.730000
						CHANNELS 3 Zrotation Yrotation Xrotation
						JOINT LeftForeArm
						{
							OFFSET 5.450000 0.000000 0.000000
							CHANNELS 3 Zrotation Yrotation Xrotation
							JOINT LeftHand
							{
								OFFSET 3.450000 0.000000 0.000000
								CHANNELS 3 Zrotation Yrotation Xrotation
								JOINT LeftHandIndex1
								{
									OFFSET 0.750000 0.000000 0.000000
									CHANNELS 3 Zrotation Yrotation Xrotation
									End Site
									{
										OFFSET 0.000000 0.000000 0.000000
									}
								}
							}
						}
					}
				}
				JOINT RightShoulder
				{
					OFFSET 0.000000 0.000000 0.000000
					CHANNELS 3 Zrotation Yrotation Xrotation
					JOINT RightArm
					{
						OFFSET -2.700000 1.550000 -0.730000
						CHANNELS 3 Zrotation Yrotation Xrotation
						JOINT RightForeArm
						{
							OFFSET -5.450000 0.000000 0.000000
							CHANNELS 3 Zrotation Yrotation Xrotation
							JOINT RightHand
							{
								OFFSET -3.450000 0.000000 0.000000
								CHANNELS 3 Zrotation Yrotation Xrotation
								JOINT RightHandIndex1
								{
									OFFSET -0.750000 0.000000 0.000000
									CHANNELS 3 Zrotation Yrotation Xrotation
									End Site
									{
										OFFSET 0.000000 0.000000 0.000000
									}
								}
							}
						}
					}
				}
			}
		}
	}
}
MOTION
Frames: 8
Frame Time: 0.016667
-1.088400 19.026320 -3.366800 -9.300738 19.072348 -20.581119 -15.436027 14.686492 2.373238 3.203169 0.100389 -1.251886 6.574586 3.946966 23.562853 0.133024 4.310919 2.930968 0.604960 0.439850 0.752120 17.910441 -9.485746 4.214514 -8.845094 7.184440 -34.639531 17.445530 -16.538712 47.381096 -1.487330 -7.766377 1.598159 -0.080700 -0.476490 0.063430 -3.077005 -4.779906 -8.113460 12.201657 -9.080728 32.149694 -1.653023 -6.978446 13.306540 4.394235 -0.118615 -22.270907 -9.994530 4.743738 78.716172 -1.698380 -0.281040 -14.734570 12.967968 -32.065120 5.004490 24.899213 -13.767316 -3.856844 7.625267 -5.221231 -0.118951 -3.152078 2.453748 0.790230 -0.504770 0.624060 0.006050 -21.387117 31.567166 7.081024 -27.247788 17.651624 -7.821317 -18.052718 5.771029 -0.513493 2.943673 -0.815891 0.182510 0.156980 -0.264210 -0.171730 
-1.122600 18.943630 -3.358120 -9.445015 18.290794 -19.406449 -15.412140 14.657832 2.399204 3.474954 0.004626 -2.001145 5.191187 4.337505 23.254526 0.098002 4.310546 2.933062 0.562260 0.380690 0.706180 17.927783 -9.533970 4.219295 -7.709691 7.402602 -35.618068 16.213099 -14.373246 43.802271 -1.229721 -6.835177 1.890414 -0.099680 -0.444790 0.078610 -3.124989 -4.648659 -8.107645 12.713796 -9.087959 30.732609 -1.767278 -6.800801 13.254573 4.618608 -0.697550 -22.366089 -11.436913 5.661580 76.350123 -2.448750 0.172140 -13.444220 14.001412 -31.335181 4.951073 24.002394 -14.240847 -3.129933 7.722921 -2.048000 -0.244869 -3.260065 2.349219 0.772750 -0.465980 0.579150 -0.003930 -22.805846 31.358334 6.579488 -27.796598 18.196251 -7.034968 -15.410184 2.940681 -0.131433 2.975498 -0.740118 0.165770 0.129140 -0.231820 -0.176820 
-1.175790 18.818560 -3.343540 -9.688569 17.601029 -17.160283 -15.326383 14.608192 2.467257 3.712846 -0.179868 -3.573397 3.833210 4.572369 22.373472 0.082589 4.075776 2.992083 0.554880 0.374990 0.711560 17.972147 -9.792739 4.122456 -5.587446 7.106869 -36.181544 13.295230 -10.056672 34.886860 -0.782131 -4.608907 2.621719 -0.130440 -0.488850 0.068580 -3.330778 -4.166774 -8.029158 14.182451 -9.085622 28.247538 -2.554761 -6.199731 12.003591 4.642231 -0.746850 -22.776274 -11.505046 5.468197 76.068446 -2.154500 0.264910 -13.936830 14.759388 -30.690996 5.207007 24.925911 -14.879784 -2.453591 5.830361 1.929908 -0.273091 -3.263422 2.151699 0.781000 -0.501610 0.600190 -0.016050 -23.676876 31.016660 6.441878 -27.810038 18.752524 -5.657965 -11.194236 -0.878415 0.375921 3.055796 -0.563411 0.188540 0.096150 -0.245980 -0.176980 
-1.255330 18.688510 -3.348680 -9.413917 16.971877 -16.131582 -15.320526 14.675178 2.553796 4.025946 -0.238060 -3.925476 3.174093 4.750045 21.886669 -0.092519 4.231106 2.984151 0.431990 0.171140 0.656220 17.934481 -9.971610 3.956645 -3.755647 6.367187 -35.029232 10.713084 -6.467126 24.331625 -0.357496 -2.609739 3.329588 -0.148310 -0.376350 0.039510 -3.292806 -4.033831 -7.979306 13.304215 -8.132272 27.513040 -1.849005 -5.445128 12.423440 4.221847 -0.447536 -22.286105 -9.844248 3.893841 72.792416 -1.559350 -0.552920 -13.306640 16.261368 -29.796485 4.807196 25.803386 -14.728313 -2.091677 5.337831 3.454630 -0.457333 -3.428750 1.916139 0.840090 -0.432430 0.485350 -0.068590 -24.340742 30.140683 6.366351 -28.409920 18.486563 -5.601619 -8.728957 -4.636326 0.490347 3.032285 -0.395777 0.023250 0.169360 -0.133180 -0.248350 
-1.337200 18.555740 -3.370630 -8.393400 17.371108 -15.270663 -15.379950 14.720148 2.627433 3.892655 -0.218385 -3.888524 2.374382 4.954366 21.481339 -0.032301 4.203082 3.000625 0.503830 0.264950 0.698170 17.865727 -9.977609 3.830829 -3.238858 5.258472 -33.996320 8.520982 -3.920235 13.999547 -0.187143 -1.295044 3.804364 -0.091680 -0.412900 0.047070 -3.123732 -4.143230 -7.998067 10.940549 -7.115388 27.213791 -0.549783 -5.117094 12.982394 3.870932 -0.233870 -21.496016 -8.506547 3.097414 69.929214 -1.549750 -0.086220 -13.859790 17.040048 -28.526140 4.712576 26.619030 -13.968770 -2.216218 5.431779 2.096936 -0.325448 -3.383637 2.040941 0.788370 -0.437930 0.499610 -0.030840 -24.354047 28.990995 6.289350 -28.414620 18.687641 -5.575355 -8.581404 -6.110554 0.408047 3.086480 -0.489668 0.061490 0.127570 -0.210750 -0.235140 
-1.410800 18.443890 -3.389640 -6.914531 16.867336 -13.357433 -15.388439 14.466922 2.622384 3.707006 -0.216264 -4.190432 0.065639 5.524650 20.638332 0.065558 4.179370 3.033261 0.530410 0.347530 0.637250 17.899835 -9.818686 3.957945 -4.020228 4.838348 -34.618726 8.274451 -2.513347 5.453327 -0.132419 -0.902038 3.992602 -0.056430 -0.365300 0.057320 -3.132278 -3.916974 -8.157563 9.278249 -5.974989 25.877057 -0.346262 -4.314995 12.712264 3.361871 -0.193400 -20.603054 -7.999392 2.661016 67.980177 -0.893910 -0.295280 -11.449170 16.117653 -27.644367 4.691231 27.115784 -14.390939 -3.345759 8.272428 -1.431975 -0.191346 -3.407367 2.346501 0.681070 -0.389190 0.479070 0.051030 -22.341394 28.492776 6.985840 -27.317750 18.487451 -5.863340 -12.380349 -3.941336 0.164202 3.077170 -0.737660 0.109740 0.108990 -0.264130 -0.164810 
-1.490580 18.361130 -3.421170 -5.763095 16.523523 -11.973468 -15.480646 14.287873 2.602773 3.603804 -0.192832 -4.336803 -1.752462 5.904138 19.358478 0.040925 4.247362 3.035963 0.520470 0.349060 0.579450 17.869603 -9.488564 4.102257 -5.065531 4.627276 -34.299434 8.598220 -1.488037 -1.882829 -0.128499 -0.990509 3.988720 -0.021590 -0.272590 0.064480 -2.911752 -4.104028 -8.317125 6.837908 -4.467204 25.658622 1.420904 -3.494872 12.865726 2.675068 -0.504352 -18.891795 -8.471370 2.351915 64.745591 0.527210 -1.344330 -11.801860 15.369533 -25.896798 4.160223 26.286190 -15.054385 -4.496158 13.322802 -6.790973 -0.520152 -3.479545 2.639735 0.635840 -0.329000 0.413580 0.071790 -19.997893 27.415722 7.593788 -26.647552 17.776074 -7.132513 -18.311410 0.573122 -0.573488 2.946365 -0.978221 0.084350 0.146480 -0.231450 -0.141780 
-1.556900 18.307110 -3.424630 -5.324270 17.285546 -9.758180 -15.421235 13.839043 2.499904 3.548880 -0.338399 -5.137344 -3.198518 5.930676 17.421181 -0.069288 4.156213 3.090058 0.516960 0.332930 0.560900 18.006220 -9.329545 4.308832 -6.006924 4.676868 -34.957412 8.512840 -0.744362 -7.166601 -0.135425 -1.236690 3.902235 0.027530 -0.186530 0.052110 -3.188621 -3.560461 -8.422058 7.325553 -3.989483 22.989824 1.051744 -3.117258 12.447127 1.862575 -0.575877 -16.227436 -8.354837 2.093540 63.924202 2.054500 -2.101980 -10.939720 12.462124 -24.364105 3.732201 25.847727 -18.216975 -5.651637 20.283770 -15.022442 -1.764700 -3.505433 2.836790 0.598040 -0.267560 0.329740 0.070230 -15.383645 25.453494 7.756941 -23.673476 18.170520 -8.306834 -27.855520 9.283734 -2.616361 2.684228 -1.244883 0.031120 0.190890 -0.196850 -0.149170 
